# xmcd
#
# Track frame offsets:
#	150
#	2137
#	17467
#	50442
#	67060
#	84592
#	103352
#	119272
#	140057
#	143595
#	161305
#	180325
#	202072
#	220485
#	235332
#	247427
#	254772
#
# Disc length: 3628
#
# Revision: 1
# Processed by: cddbd v1.5.1PL0 Copyright (c) Steve Scherf et al.
# Submitted via: cdripper 1.0.10
# Normalized: r0:DSETVAR1,TDELIM( - )
#
DISCID=020e2a11
DTITLE=Various Artist - Ann Arbor Blues and Jazz Festival, Volume 4
DYEAR=1996
DGENRE=Blues
TTITLE0=Joe Willie Wilkins - Introduction
TTITLE1=Willie Love - Little Car Blues
TTITLE2=Robert Johnson, Sonny Blake - Me and The Devil Blues and Down So Long
TTITLE3=Tommy Johnson - Cool Drink Of Water Blues
TTITLE4=Robert Nighthawk - Bricks In My Pillow
TTITLE5=Robert Nighthawk - Sweet Black Angel
TTITLE6=Joe Willie Wilkins - It's Too Bad
TTITLE7=Rice Miller - Mr. Downchild
TTITLE8=Big Walter Horton Blues Band - Introduction
TTITLE9=Walter Horton - Walter's Slow Blues
TTITLE10=Willie Dixon - Hard Hearted Woman
TTITLE11=Haster Horton - Swingin' Blues
TTITLE12=Jimmy Rogers - That Ain't It
TTITLE13=Richard Jones - Trouble In Mind
TTITLE14=W. C. Handy - St. Louis Blues
TTITLE15=Walter Horton - Walter Jumps One
TTITLE16=Hudson Whitaker - It Hurts Me Too
EXTD=YEAR: 1996
EXTT0=
EXTT1=
EXTT2=
EXTT3=
EXTT4=
EXTT5=
EXTT6=
EXTT7=
EXTT8=
EXTT9=
EXTT10=
EXTT11=
EXTT12=
EXTT13=
EXTT14=
EXTT15=
EXTT16=
PLAYORDER=
